<svg xmlns="http://www.w3.org/2000/svg" xmlns:svg="http://www.w3.org/2000/svg" style="enable-background:new 0 0 24 24" id="Layer_1" x="0" y="0" version="1.1" viewBox="0 0 24 24" xml:space="preserve"><metadata id="metadata65"/><style id="style54" type="text/css">.st0{fill:none}.st1{fill:#933}</style><path id="path56" d="M0,0h24v24H0V0z" class="st0"/><path id="path58" d="M6,19c0,1.1,0.9,2,2,2h8c1.1,0,2-0.9,2-2V9c0-1.1-0.9-2-2-2H8C6.9,7,6,7.9,6,9V19z M18,4h-2.5l-0.7-0.7 C14.6,3.1,14.4,3,14.1,3H9.9C9.6,3,9.4,3.1,9.2,3.3L8.5,4H6C5.4,4,5,4.4,5,5s0.4,1,1,1h12c0.5,0,1-0.4,1-1S18.5,4,18,4z" class="st1"/></svg>